<?xml version="1.0" encoding="UTF-8"?>
<svg id="Layer_2" data-name="Layer 2" xmlns="http://www.w3.org/2000/svg" viewBox="0 0 426.77 117.45">
  <defs>
    <style>
      .cls-1 {
        fill: #d0b870;
      }

      .cls-1, .cls-2 {
        stroke-width: 0px;
      }

      .cls-2 {
        fill: #fff;
      }
    </style>
  </defs>
  <g id="Layer_1-2" data-name="Layer 1">
    <g>
      <path class="cls-2" d="M23.46,88.12V20.81h17.36v52.17h27.04v15.14H23.46Z"/>
      <path class="cls-2" d="M76.84,88.12V20.81h49.34v14.63h-31.99v11.2h31.28v14.73h-31.28v12.11h31.99v14.63h-49.34Z"/>
      <path class="cls-2" d="M169.27,19.7c14.73,0,23.81,7.27,28.76,15.64l-14.53,7.67c-2.72-4.44-7.87-7.97-14.23-7.97-11,0-18.77,8.48-18.77,19.47s7.77,19.47,18.77,19.47c5.25,0,9.99-1.82,12.71-4.04v-5.65h-15.44v-14.43h32.49v26.34c-7.27,7.97-17.05,13.12-29.77,13.12-20.08,0-36.43-13.42-36.43-34.81s16.35-34.81,36.43-34.81Z"/>
      <path class="cls-2" d="M254.94,88.12l-3.43-10.19h-27.95l-3.43,10.19h-18.87l25.33-67.3h21.8l25.43,67.3h-18.87ZM237.49,35.95l-9.39,27.35h18.87l-9.48-27.35Z"/>
      <path class="cls-2" d="M272.1,54.52c0-20.79,15.74-34.81,35.92-34.81,16.75,0,25.43,9.18,29.87,18.06l-14.93,7.06c-2.22-5.35-7.97-9.79-14.93-9.79-10.49,0-18.26,8.48-18.26,19.47s7.77,19.47,18.26,19.47c6.96,0,12.71-4.44,14.93-9.79l14.93,7.06c-4.34,8.68-13.12,18.06-29.87,18.06-20.18,0-35.92-14.13-35.92-34.81Z"/>
      <path class="cls-2" d="M361,88.12v-27.14l-25.53-40.16h19.58l14.63,24.82,14.43-24.82h19.68l-25.43,40.16v27.14h-17.36Z"/>
    </g>
    <g>
      <path class="cls-1" d="M98.84,114.21l2.5-6.34-.52-1.63c-.16-.5-.32-.83-.49-.98-.17-.16-.42-.24-.75-.24-.04,0-.1,0-.18,0s-.14,0-.17,0v-.81c.1,0,.26,0,.46.02,1.07.06,1.81.09,2.22.09.28,0,.63,0,1.05-.03.42-.02.93-.04,1.52-.08v.81s-.11,0-.19,0-.13,0-.17,0c-.35,0-.59.05-.74.16-.14.11-.21.3-.21.58,0,.13.03.33.1.58.07.25.17.6.31,1.03l2.19,6.82.5-1.43c1.47-4.2,2.2-6.53,2.2-6.98,0-.27-.08-.46-.23-.57-.15-.11-.43-.17-.83-.17h-.25v-.81c.13,0,.32.01.55.03.84.05,1.42.08,1.73.08.29,0,.85-.03,1.69-.08.24-.01.43-.02.56-.03v.81s-.06,0-.1-.01c-.04,0-.1,0-.17,0-.64,0-1.32,1.01-2.02,3.04-.27.77-.49,1.39-.66,1.84l-.78,2.04c-.09.22-.22.55-.39.99-.78,2.02-1.28,3.46-1.52,4.31h-1.71c-.06-.27-.13-.53-.2-.81-.08-.27-.17-.58-.29-.93l-1.91-5.74-2.22,5.6c-.18.45-.31.81-.4,1.08-.09.27-.16.53-.22.79h-1.71c-.07-.4-.55-1.82-1.43-4.26l-.31-.85-.91-2.51c-.14-.4-.32-.95-.55-1.63-.68-2-1.32-3-1.93-3-.05,0-.14,0-.25.03-.02,0-.03,0-.05,0v-.81c.61.04,1.13.06,1.55.08.43.02.77.03,1.04.03.31,0,.91-.02,1.81-.07.33-.02.59-.03.77-.04v.81h-.21c-.31,0-.54.06-.68.17-.15.11-.22.28-.22.51,0,.2.12.66.37,1.36l.02.05,2.42,7.08Z"/>
      <path class="cls-1" d="M120,104.2c1.02.04,1.97.07,2.84.1s1.63.03,2.29.03c1.1,0,2.03,0,2.8-.03s1.47-.05,2.13-.1c.01.52.04,1.04.07,1.55s.09,1.02.15,1.54l-.81.11c-.08-.75-.33-1.26-.75-1.53s-1.24-.4-2.48-.4c-.22,0-.52,0-.89.01-.37,0-.82.02-1.36.04-.01.8-.02,1.56-.03,2.29,0,.73-.02,1.43-.03,2.1h.26c.35,0,.78,0,1.31,0,.52,0,.87,0,1.04,0,.83,0,1.38-.08,1.64-.24.26-.16.4-.47.42-.93l.67.06c0,.3,0,.68-.03,1.13-.02.45-.03.76-.03.93s0,.37.01.62c0,.25.02.56.04.91l-.76.05v-.11c0-.52-.15-.87-.45-1.05-.3-.18-1-.27-2.11-.27h-2.03v1.04c0,.54,0,1.09,0,1.65,0,.56.01,1.23.03,2.01.27.04.61.06,1.02.09s.85.03,1.33.03c1.44,0,2.4-.15,2.88-.45s.87-.88,1.16-1.73l.83.26c-.2.58-.37,1.13-.51,1.65-.14.52-.26,1.03-.36,1.53-1.42-.05-2.55-.08-3.4-.1-.84-.02-1.59-.03-2.25-.03-.74,0-1.92.03-3.55.08-.56.02-.99.03-1.27.04v-.8s.08.01.12.01c.05,0,.11,0,.2,0,.51,0,.85-.16,1.03-.47.18-.31.27-1.13.27-2.44v-1.73l.02-2.02c0-.09,0-.23,0-.41.02-.74.03-1.25.03-1.52s0-.56,0-.85c0-.29,0-.46,0-.49,0-.52-.09-.89-.28-1.09-.19-.21-.52-.31-.99-.31h-.21v-.81Z"/>
      <path class="cls-1" d="M145.33,104.16h2.2c.87,2.54,1.69,4.88,2.48,7.01.79,2.13,1.34,3.55,1.65,4.25.13.32.3.55.5.68.2.14.47.2.81.2h.2v.81c-.77-.04-1.35-.06-1.76-.07s-.75-.02-1.03-.02-.61,0-1.03.02-1.03.04-1.83.07v-.81h.16c.48,0,.8-.05.97-.16s.25-.3.25-.58c0-.08-.01-.18-.03-.3s-.06-.28-.13-.48l-.74-2.19c-.34,0-.8-.01-1.36-.02-.56,0-.91-.01-1.05-.01-.26,0-.78,0-1.56.03-.28,0-.5,0-.66,0l-.04.09c-.59,1.44-.89,2.35-.89,2.73,0,.31.09.54.27.68.18.14.47.21.88.21h.16v.81c-.69-.04-1.22-.06-1.6-.07s-.69-.02-.94-.02c-.21,0-.47,0-.81.02s-.82.04-1.46.07v-.81c.43,0,.78-.08,1.04-.23.26-.15.48-.4.66-.76.26-.47.84-1.78,1.75-3.94.91-2.16,1.89-4.56,2.93-7.22ZM145.83,106.33l-1.97,5c.23,0,.47,0,.73.01.26,0,.6,0,1.03,0,.49,0,.88,0,1.16,0,.28,0,.54,0,.78-.01l-1.72-5Z"/>
      <path class="cls-1" d="M161.69,104.22c.51.03,1,.05,1.45.07s.86.02,1.22.02.78,0,1.23-.02.98-.04,1.58-.07v.81s-.09,0-.15,0c-.07,0-.11,0-.14,0-.51,0-.85.15-1.03.45-.18.3-.27.98-.27,2.04,0,.16,0,.44,0,.85,0,.41,0,.74,0,1l.02,6.34h.05c.78.06,1.36.08,1.76.08,1.51,0,2.5-.16,2.97-.47s.86-.91,1.16-1.79l.83.25c-.19.55-.35,1.1-.5,1.65-.15.56-.28,1.12-.38,1.68-1.07-.04-2.06-.06-2.97-.08-.92-.02-1.75-.03-2.51-.03s-1.51,0-2.27.03c-.76.02-1.52.04-2.27.08v-.8h.25c.33,0,.57-.03.75-.1s.3-.17.38-.32c.17-.33.26-1.57.27-3.71,0-.28,0-.49,0-.63l.02-1.97c0-.26,0-.61,0-1.04s0-.73,0-.9c0-1.08-.09-1.79-.27-2.12s-.51-.5-1.01-.5h-.21v-.8Z"/>
      <path class="cls-1" d="M181.86,116.3h.33c.4,0,.7-.04.89-.13s.33-.24.42-.47c.06-.17.1-.58.13-1.23.02-.65.04-1.86.04-3.61v-5.17h-1.55c-.95,0-1.59.13-1.94.4-.35.27-.59.77-.72,1.53l-.85-.18c.14-.6.25-1.17.32-1.71s.12-1.08.14-1.61c.23.08.55.13.97.17s1.12.05,2.11.05h5.42c1.11,0,1.88-.02,2.32-.05.44-.03.76-.09.96-.18v.28c0,.47.02.96.06,1.46.04.5.1,1.03.18,1.6l-.81.13c-.1-.73-.31-1.23-.62-1.49-.31-.26-.93-.38-1.85-.38h-1.59c-.02.96-.03,1.91-.04,2.85,0,.93,0,2.02,0,3.26v1.69c0,.8.02,1.35.05,1.67.04.32.09.56.17.71.09.15.23.26.42.33.19.07.46.1.81.1h.32v.81c-.15,0-.37-.01-.67-.03-1.18-.05-1.99-.08-2.42-.08-.31,0-.72,0-1.21.03-.49.02-1.08.04-1.76.08v-.81Z"/>
      <path class="cls-1" d="M199.48,104.22c.17,0,.43.02.76.04.93.05,1.56.07,1.89.07.42,0,1.16-.03,2.24-.08.24-.01.42-.02.55-.03v.81h-.21c-.52,0-.87.13-1.05.38-.18.25-.28.93-.28,2.02v2.39c.51.02,1.01.03,1.5.04.49,0,.98.01,1.46.01.45,0,.96,0,1.53-.01s1.19-.02,1.87-.04v-2.39c0-1.1-.09-1.77-.27-2.02-.18-.25-.53-.38-1.06-.38h-.21v-.81c.58.04,1.1.06,1.56.08.46.02.87.03,1.23.03.33,0,.96-.02,1.88-.07.33-.02.58-.03.76-.04v.8s-.08,0-.12,0c-.05,0-.1,0-.18,0-.48,0-.8.15-.97.46-.17.31-.25,1-.25,2.06,0,.18,0,.51,0,.98,0,.47,0,.86,0,1.15v1.91c0,.36,0,.81,0,1.36,0,.55,0,.91,0,1.1,0,.94.09,1.56.26,1.85s.51.43.99.43c.09,0,.16,0,.2,0,.05,0,.09,0,.12-.01v.82c-.2-.01-.49-.03-.87-.04-.93-.04-1.55-.06-1.86-.06-.34,0-.75,0-1.23.03-.48.02-1.03.04-1.65.08v-.82s.11,0,.18,0c.07,0,.12,0,.15,0,.52,0,.87-.14,1.04-.41.18-.27.27-.97.27-2.09v-2.6c-.61-.01-1.17-.02-1.68-.03s-1.02,0-1.52,0c-.86,0-1.5,0-1.94,0s-.85.01-1.22.03v2.6c0,1.13.09,1.82.27,2.09.18.27.53.41,1.04.41.03,0,.08,0,.16,0,.08,0,.13,0,.18,0v.82c-.63-.04-1.18-.06-1.66-.08-.48-.02-.89-.03-1.22-.03-.31,0-.93.02-1.86.06-.37.02-.67.03-.88.04v-.82s.09.01.14.01c.05,0,.12,0,.22,0,.48,0,.81-.16.98-.47.17-.32.26-1,.26-2.04,0-.18,0-.52,0-1,0-.49,0-.88,0-1.19v-1.92c0-.34,0-.76,0-1.28,0-.52,0-.87,0-1.05,0-.96-.09-1.59-.26-1.89s-.49-.44-.96-.44c-.08,0-.14,0-.18,0-.04,0-.08,0-.12,0v-.8Z"/>
      <path class="cls-1" d="M247.41,104.63c0,.53.04,1.06.09,1.58.05.52.13,1.04.23,1.55l-.91.18c-.16-.86-.56-1.5-1.21-1.94s-1.53-.66-2.64-.66c-1.5,0-2.66.45-3.49,1.34-.83.89-1.24,2.14-1.24,3.76,0,1.72.45,3.09,1.35,4.11.9,1.02,2.1,1.53,3.59,1.53.34,0,.67-.03,1-.09.33-.06.66-.16.98-.29,0-.27.01-.63.02-1.07,0-.44.01-.72.01-.84,0-.88-.1-1.43-.32-1.65-.21-.22-.67-.33-1.38-.33h-.26v-.81c.63.03,1.16.05,1.59.06.43.01.83.02,1.18.02.38,0,.81,0,1.26-.02.46-.01,1.02-.03,1.68-.06v.81h-.26c-.48,0-.79.11-.94.32s-.23.82-.23,1.81v.89c0,.33,0,.65.02.96.01.31.03.61.05.91-1.42.31-2.47.52-3.14.61-.67.1-1.29.15-1.83.15-2.16,0-3.89-.61-5.2-1.83s-1.96-2.83-1.96-4.84.71-3.71,2.13-4.98,3.28-1.9,5.57-1.9c.71,0,1.42.06,2.14.18.71.12,1.42.3,2.12.54Z"/>
      <path class="cls-1" d="M257.45,116.32s.09.01.14.01c.04,0,.12,0,.21,0,.49,0,.83-.16,1-.49.17-.32.26-1.19.26-2.58v-1.63l.04-2.02c0-.43,0-.85.01-1.27,0-.42,0-.93,0-1.52,0-.76-.09-1.25-.28-1.47-.18-.22-.53-.33-1.04-.33h-.19v-.8c.64.03,1.18.05,1.6.07s.79.02,1.1.02c.45,0,1-.01,1.66-.04.66-.03,1.11-.04,1.34-.04,1.49,0,2.67.31,3.53.93.86.62,1.29,1.46,1.29,2.53,0,.71-.22,1.34-.65,1.88s-1.08,1.01-1.94,1.39l1.77,2.49c.84,1.31,1.46,2.14,1.85,2.48s.8.51,1.24.51c.02,0,.06,0,.1,0s.08,0,.1,0v.76c-.37.03-.69.05-.96.07s-.51.02-.71.02c-.73,0-1.31-.08-1.73-.24s-.79-.44-1.12-.84c-.16-.19-.54-.79-1.16-1.8-.61-1.01-1.15-1.88-1.62-2.61-.37.01-.7.02-.99.03-.29,0-.57,0-.84,0v2.4c0,.92.09,1.5.27,1.74s.54.36,1.07.36h.25v.81c-.49-.03-.99-.05-1.48-.07s-1-.02-1.52-.02c-.17,0-.42,0-.75.01-.33,0-.96.03-1.89.08v-.8ZM261.49,110.62c.32.02.59.03.81.04.22,0,.41.01.56.01.19,0,.38,0,.6-.01.21,0,.43-.02.66-.04.52-.34.91-.72,1.15-1.15s.37-.94.37-1.51c0-.75-.26-1.36-.76-1.83s-1.18-.7-2.03-.7c-.26,0-.5,0-.71.03-.21.02-.42.05-.63.08,0,.66-.01,1.34-.01,2.06,0,.72,0,1.73,0,3.03Z"/>
      <path class="cls-1" d="M285.96,103.89c.96,0,1.81.13,2.57.39s1.45.67,2.08,1.22c.74.64,1.3,1.4,1.7,2.28.4.88.6,1.82.6,2.81,0,1.97-.67,3.6-2,4.91s-3,1.96-5,1.96c-1.04,0-1.99-.17-2.83-.51-.84-.34-1.59-.85-2.24-1.52-.6-.63-1.06-1.35-1.38-2.16s-.47-1.67-.47-2.58c0-1.01.2-1.94.59-2.81.39-.86.97-1.62,1.72-2.26.63-.54,1.35-.96,2.17-1.27.82-.3,1.65-.45,2.49-.45ZM290.11,110.9c0-1.71-.39-3.08-1.18-4.11-.79-1.04-1.83-1.55-3.11-1.55s-2.21.46-2.94,1.38-1.1,2.17-1.1,3.74c0,1.72.4,3.1,1.2,4.14.8,1.04,1.84,1.56,3.11,1.56s2.21-.46,2.94-1.38c.72-.92,1.08-2.18,1.08-3.78Z"/>
      <path class="cls-1" d="M307.26,104.22v.81s-.09,0-.15,0c-.07,0-.11,0-.14,0-.51,0-.86.15-1.04.45-.18.3-.27,1.06-.27,2.27v2.07c0,1.22.02,2.08.06,2.59s.11.91.22,1.21c.23.72.63,1.27,1.21,1.65.58.38,1.29.57,2.13.57.69,0,1.28-.12,1.77-.35.49-.23.89-.59,1.19-1.06.2-.32.35-.74.44-1.25.09-.51.13-1.28.13-2.3,0-.19,0-.51,0-.96,0-.45,0-.8,0-1.05v-.95c0-1.27-.09-2.07-.27-2.39-.18-.33-.53-.49-1.04-.49-.08,0-.14,0-.18,0-.04,0-.08,0-.12,0v-.8c.56.03,1.03.05,1.4.07s.69.02.95.02c.25,0,.55,0,.9-.02.35-.01.81-.04,1.38-.07v.81h-.15c-.36,0-.63.04-.8.12-.17.08-.3.23-.38.43-.11.3-.19,1.61-.22,3.93,0,.33,0,.59,0,.77v.5c-.01,2.06-.24,3.48-.67,4.25-.43.77-1.07,1.37-1.92,1.79-.84.42-1.83.63-2.95.63-1.03,0-1.94-.17-2.74-.51-.8-.34-1.43-.82-1.88-1.45-.34-.47-.59-1.01-.73-1.63-.14-.61-.22-1.53-.22-2.75,0-.33,0-.9.03-1.73s.03-1.5.03-2c0-1.05-.09-1.71-.26-1.97s-.51-.38-1.02-.38h-.22v-.81c.68.03,1.23.05,1.66.07s.79.02,1.1.02c.28,0,.64,0,1.07-.02s1-.04,1.73-.07Z"/>
      <path class="cls-1" d="M324.37,116.32c.05,0,.11.01.16.01.05,0,.14,0,.24,0,.48,0,.81-.15.98-.44s.26-.97.26-2.03v-.78c0-.36,0-.64,0-.84,0-.2-.01-.39-.03-.57l-.02-2.19v-3.18c0-.46-.1-.8-.29-.99-.19-.2-.51-.3-.96-.3h-.18v-.84c.49.04.95.07,1.37.09.42.02.81.03,1.17.03.56,0,1.2-.02,1.92-.06.72-.04,1.15-.06,1.3-.06,1.55,0,2.76.34,3.65,1.02s1.33,1.61,1.33,2.77c0,1.23-.46,2.2-1.37,2.92-.92.72-2.17,1.08-3.77,1.08-.27,0-.74-.03-1.42-.09-.13-.01-.23-.02-.29-.03v2.24c0,.98.09,1.59.28,1.84.19.25.57.37,1.14.37h.32v.81c-.6-.04-1.15-.06-1.67-.08-.52-.02-1-.03-1.44-.03-.19,0-.51,0-.96.03-.45.02-1.02.04-1.73.08v-.8ZM328.4,110.78c.22.04.43.06.62.08.19.01.37.02.53.02,1.05,0,1.85-.24,2.4-.72.55-.48.83-1.16.83-2.06,0-.83-.26-1.49-.79-1.97s-1.24-.72-2.15-.72c-.21,0-.43,0-.65.03-.22.02-.48.05-.76.1-.01.75-.02,1.52-.03,2.29,0,.77,0,1.75,0,2.95Z"/>
    </g>
    <polygon class="cls-1" points="0 0 0 112.24 83.13 112.24 83.13 110.33 1.91 110.33 1.91 1.91 424.85 1.91 424.85 110.33 343.64 110.33 343.64 112.24 426.77 112.24 426.77 0 0 0"/>
  </g>
</svg>