<?xml version="1.0" encoding="UTF-8"?>
<svg id="Layer_2" data-name="Layer 2" xmlns="http://www.w3.org/2000/svg" viewBox="0 0 341.79 150.49">
  <defs>
    <style>
      .cls-1 {
        fill: #2f2f2f;
      }

      .cls-1, .cls-2 {
        stroke-width: 0px;
      }

      .cls-2 {
        fill: #206ba4;
      }
    </style>
  </defs>
  <g id="Layer_1-2" data-name="Layer 1">
    <g>
      <path class="cls-1" d="M64.58,105.76l7.96-24.62h9.15l8.22,24.04,7.91-24.04h12.15l-15.77,44.69h-8.58l-8.37-24.96-8.37,24.96h-9.05l-15.66-44.69h12.15l8.27,24.62Z"/>
      <path class="cls-1" d="M141.6,81.15c3.76,0,7.1,1,10.03,2.99.48.31.76.5.83.58.28.15.57.4.88.75.38.42.64.75.78.98.03.04.26.35.67.92,1,1.38,1.79,2.74,2.38,4.08.59,1.34.88,2.74.88,4.2,0,2.65-1.09,5.43-3.26,8.34-.48.65-.71.96-.67.92l-.78.92c-1.14,1.19-2.77,2.21-4.91,3.05l11.17,16.79h-12.56l-10.39-15.64h-6.46v15.64h-11.63v-44.52h23.05ZM130.17,91.44v8.4h11.42c1.55,0,2.91-.39,4.08-1.18,1.17-.79,1.76-1.79,1.76-3.02s-.59-2.23-1.78-3.02c-1.19-.79-2.54-1.18-4.06-1.18h-11.42Z"/>
      <path class="cls-1" d="M181.04,81.15v44.52h-11.79v-44.52h11.79Z"/>
      <path class="cls-1" d="M229.11,108.35l-15.2.17v-9.89h27.4v4.95c0,4.45-1.26,8.42-3.77,11.91-2.52,3.49-5.81,6.19-9.87,8.11-4.07,1.92-8.3,2.88-12.72,2.88s-8.63-.97-12.66-2.91c-4.03-1.94-7.3-4.65-9.79-8.14-2.5-3.49-3.75-7.44-3.75-11.85s1.24-8.49,3.72-12.02c2.48-3.53,5.73-6.27,9.74-8.22,4.01-1.96,8.26-2.93,12.74-2.93,3.72,0,7.3.66,10.73,1.98,3.43,1.32,6.42,3.23,8.97,5.72l.83.86-8.74,6.21-.62-.58c-1.45-1.42-3.14-2.49-5.09-3.22-1.95-.73-3.97-1.09-6.07-1.09-2.65,0-5.13.57-7.42,1.7-2.29,1.13-4.14,2.71-5.53,4.75s-2.09,4.31-2.09,6.84.7,4.77,2.09,6.73,3.25,3.48,5.56,4.57,4.77,1.64,7.39,1.64c3.07,0,5.91-.72,8.53-2.16,2.62-1.44,4.5-3.44,5.63-6.01Z"/>
      <path class="cls-1" d="M262.91,108.81v16.85h-11.99v-44.52h11.99v16.1h17.06v-16.1h11.84v44.52h-11.84v-16.85h-17.06Z"/>
      <path class="cls-1" d="M341.79,91.44h-14.16v34.22h-11.84v-34.22h-14.32v-10.29h40.32v10.29Z"/>
    </g>
    <g>
      <path class="cls-2" d="M16.51,119.62c-8.65-1.41-15.3-9.16-16.25-18.66-.63-5.4-.11-10.92,1.58-16.43,1.58-5.52,3.9-11.15,6.96-17.14,4.43-8.57,10.13-16.79,17.2-25.24,11.08-13.03,22.47-23.01,34.71-30.52,7.49-4.58,14.35-7.75,20.99-9.74,4.64-1.41,7.28-1.76,11.71-1.88,2.22,0,4.75.12,7.17.82,1.9.7,3.59,1.53,4.96,2.7,4.22,3.4,5.38,7.16,4.11,13.15-.11.47-.32.94-.53,1.41-2.43,6.34-5.91,11.03-10.34,14.56-.95.7-1.9,1.41-2.85,1.76-.21,0-.32.12-.53.12-.53,0-.95-.35-1.27-.82-.32-.59-.42-1.29.11-1.88s1.16-1.06,2-1.64c3.8-2.7,6.86-6.69,9.28-11.97.42-.94.74-2,.95-2.93.95-3.64,0-6.46-2.74-8.57-2.22-1.88-4.85-2.82-8.23-3.05h-1.9c-3.38,0-6.96.59-10.97,1.76-5.7,1.76-11.6,4.46-18.25,8.22-10.02,5.75-19.62,13.38-29.12,23.36-8.55,8.92-15.3,17.84-20.78,27.23-3.59,6.1-6.33,11.86-8.33,17.61-2,5.63-2.85,9.98-2.95,14.44-.11,3.52.42,6.46,1.48,9.04,2.53,6.57,7.17,10.21,13.71,10.8.74.12,1.48.12,2.22.12,3.17,0,6.44-.59,10.13-1.76,5.91-2.11,12.03-4.81,17.94-7.98,8.23-4.58,17.09-9.51,27.01-15.26l1.37-.82c11.6-6.57,23.53-13.5,35.76-19.25,1.69-.82,3.38-1.76,5.06-2.58l3.27-1.76c.84-.47,1.79-.82,2.64-1.06.11-.12.32-.12.42-.12.53,0,.95.23,1.27.7.42.59.53,1.53.11,2.23-.84,1.64-2.11,2.58-3.59,2.82-1.9.23-3.59,1.06-5.17,1.76l-.63.35c-14.24,6.69-28.17,14.79-41.67,22.54l-10.13,5.87c-7.07,3.99-14.24,8.1-21.84,11.62-4.96,2.35-10.23,4.58-15.82,5.75-2.32.47-4.43.7-6.33.7-1.37,0-2.64-.12-3.9-.35Z"/>
      <path class="cls-2" d="M113.35,84.52c-1.06-1.41-1.37-3.52-1.06-5.87.21-1.17.42-2.35.84-3.17,2.43-5.28,5.38-8.33,9.49-9.63.53-.12,1.06-.47,1.58-.82l.42-.12c.42-.23.74-.35,1.16-.35s.95.12,1.48.59c.32.23.63.59.84.82,1.58,1.53,3.38,2.35,5.06,2.82,2.53.82,5.17,1.29,8.12,1.29,1.58,0,3.06-.12,4.75-.35l1.16-.12c2.74-.35,5.59-.7,8.33-1.41.32-.12.63-.12.95-.12h.84c.11,0,.63.12.95.94.21.59.11,1.17-.32,1.64-.32.35-.74.59-1.16.82-.74.23-1.48.47-2.43.7-4.22.94-7.81,1.29-11.08,1.29h-1.06c-.74.12-1.37.12-2,.12-2.95,0-5.59-.47-8.33-1.29-.53-.23-1.16-.35-1.79-.47l-.42-.12c-1.06,0-1.69.7-1.9,1.76-.21.59-.32,1.29-.42,2l-.21.94c-.84,4.58-3.38,7.87-7.49,9.27-.95.35-1.79.47-2.64.47-1.58,0-2.85-.59-3.69-1.64ZM118.41,82.29c2.95-.82,5.59-4.46,5.7-7.87v-.23c0-.23,0-.59-.11-.82-.11-1.53-1.05-2.47-2.22-2.47-.53,0-1.06.12-1.48.47-1.79,1.29-3.06,3.17-4.01,5.4-.32.82-.63,1.76-.74,2.82-.11.7.11,1.41.53,2,.42.47,1.05.82,1.69.82.21,0,.42-.12.63-.12Z"/>
      <path class="cls-2" d="M153.33,81.23c-.63-.23-.95-.82-.95-1.64,0-1.29,0-2.46.32-3.64.42-1.76,1.16-3.4,1.16-5.28v-.23c0-2.35.84-4.46.84-6.93,0-.35.21-.94.32-1.41.21-.82.74-1.17,1.48-1.17s1.58.35,1.58,1.17l.11,1.53c0,.47-.11,2,1.27,2.23,0,0,.11.12.21.12.95,0,1.37-1.06,1.69-1.76.11-.23.21-.47.32-.59.53-.59.95-1.29,1.27-1.88.32-.59.74-1.17,1.16-1.76.32-.47.63-.82,1.06-1.29.53-.59,1.05-.82,1.58-.82.32,0,.53,0,.74.12.53.23,1.27.82,1.27,2.35v.35c0,1.88.21,3.87,1.69,5.4,1.69,1.76,3.59,2.58,5.7,2.58h.53c2.11,0,4.22-.12,6.54-.23,4.33-.23,8.23,0,11.82-1.29.32-.12.63-.12.95-.12h.74c.53,0,1.06.35,1.27.94s.21,1.29-.11,1.88c-.53,1.06-1.16,1.41-2,1.41-.32,0-.63-.12-.95-.12h-.11s-1.37.23-2,.23c-1.37,0-2.74.23-4.22.47-3.59.59-7.17.59-10.66.59h-1.69c-3.8,0-7.17-1.64-9.6-5.28-.32-.47-.84-1.06-1.48-1.06-.74,0-1.37.7-1.48,1.06s-.21.59-.42.94l-.95,1.76c-.42.7-.84,1.53-1.27,2.35-1.27,2.46-2.74,5.05-4.33,7.16-.53.7-.95,1.17-1.37,1.64-.32.35-.74.47-1.06.47s-.63-.12-.95-.23Z"/>
      <path class="cls-2" d="M187.61,84.05c0-1.53.32-3.17.84-5.05,2.21-7.28,5.91-13.38,10.66-18.08.84-.82,1.79-1.53,3.06-2.35.84-.59,1.79-.82,2.85-.82.21,0,.53,0,.84.12,1.37.12,2.53.94,3.17,2.11.63,1.17.74,2.58.32,3.99-.42,1.29-1.05,2.35-1.9,3.17-2.53,2.58-5.49,4.11-8.33,4.11l-1.79-.12h-.21c-.95,0-1.69.35-2.11,1.17-2.32,3.87-3.59,7.4-3.9,11.03-.11,1.17.11,2.11.63,2.93.42.47,1.27,1.06,2.64,1.06h.32c1.48-.12,2.74-.59,3.8-1.06l.21-.12c2.21-1.06,4.43-2.11,6.54-3.29,3.69-2,7.28-3.99,10.76-6.22,7.81-4.93,16.14-7.16,23.21-8.8.42-.12.74-.12,1.16-.12h.32c.84,0,1.37.59,1.48,1.29.11.82-.21,1.53-.95,1.88-.74.35-1.48.59-2.32.82h-.11c-1.27.35-2.53.7-3.9.94l-1.48.47c-5.28,1.29-10.23,3.4-15.4,6.57-3.69,2.11-7.39,4.23-10.97,6.34l-1.05.59c-2.53,1.41-5.06,2.58-7.49,3.52-1.37.59-2.74.82-4.22.82h-.95c-3.48-.35-5.7-2.93-5.7-6.93ZM202.7,66.21c1.69-.47,2.64-1.64,2.53-2.93-.11-.47-.53-1.06-1.06-1.06h-.21c-1.37,0-2.21.94-2.74,1.88-.21.47-.11,1.06,0,1.17.11.23.21.47.32.59l.21.23h.21c.11.12.32.12.53.12h.21Z"/>
      <path class="cls-2" d="M198.95,149.55c-2.95-1.29-4.43-3.64-4.64-7.16-.11-2.11.32-4.34,1.37-7.16,1.16-3.05,2.85-5.75,4.12-7.75,3.06-4.81,6.75-9.51,11.5-14.44,9.81-10.45,21.42-19.02,34.18-25.47,5.28-2.58,11.5-5.63,18.04-8.22,2.32-.94,3.8-2.47,4.75-4.81.74-1.88,1.58-3.87,2.43-5.75l1.27-2.82v-.12c.32-.7.74-1.53.63-2.58,0-.82-.63-1.41-1.37-1.41-.21,0-.32,0-.53.12-.84.47-1.79.94-2.43,1.41l-5.7,3.76c-3.8,2.58-7.81,5.28-11.82,7.86-1.58,1.06-3.48,2-5.49,2.94-1.37.59-2.74,1.06-4.01,1.17h-.63c-1.16,0-2.11-.47-2.85-1.41-.63-.94-.95-2.11-.63-3.52.53-2.94,1.79-5.87,3.9-8.45.53-.59,1.16-.94,1.69-.94.32,0,.63.12.84.23.95.82.53,2.11,0,3.05l-.63.94c-.32.47-.63.94-.95,1.53l-.21.35c-.32.7-1.05,2-.11,3.29.42.35.84.59,1.37.59.42,0,.84-.23,1.16-.35l.42-.12c.53-.23,1.16-.59,1.69-.94l.53-.23,2.95-1.76,1.58-.94c6.86-4.46,13.93-9.04,20.57-14.32.95-.7,1.69-1.17,2.43-1.64.74-.47,1.27-.7,1.69-.82.21-.12.42-.12.63-.12,1.06,0,1.69.7,1.79,2,.21,1.41-.21,2.7-.53,3.76-.95,3.17-2.22,6.22-3.48,9.39-.42.94-.84,2-1.16,3.05-.32.7-.21,1.41.11,2,.32.47.84.82,1.37.82.21,0,.32,0,.53-.12,1.05-.23,2-.59,2.95-.94,6.54-2.35,13.5-4.34,20.47-5.75l.42-.12c.42-.12.84-.12,1.16-.12.84,0,1.58.59,1.69,1.41.11.59-.21,1.41-.95,1.76-.84.35-1.79.59-2.64.82-8.55,1.88-16.99,4.46-25.21,7.75l-.11.12c-.11,0-.21,0-.42.12-2.43.59-4.22,2.23-5.59,5.17-4.75,9.86-10.13,19.13-15.82,27.47-7.07,10.21-15.19,19.72-24.26,27.94-5.06,4.58-9.71,7.4-14.67,8.8-3.48,1.06-6.22,1.53-8.86,1.64h-.42c-1.37,0-2.74-.35-4.11-.94ZM204.23,146.73c.32-.12.63-.12.95-.12,6.96-.7,13.4-3.64,19.1-8.8,14.45-13.03,26.48-28.88,36.61-48.36.32-.47.53-1.17.84-1.88.21-.59.11-1.29-.21-1.88-.21-.47-.74-.7-1.27-.7-.11,0-.32,0-.42.12-.84.23-1.79.47-2.64.94l-.84.35c-3.06,1.53-6.33,3.05-9.5,4.58-11.29,5.63-21.52,13.03-30.49,21.83-6.12,6.1-10.66,11.62-14.24,17.37-1.58,2.46-2.64,4.7-3.48,6.81-.63,1.64-1.05,3.05-1.05,4.34-.11,2.35.95,4.11,2.95,4.81.63.24,1.48.47,2,.47.32.12.53.12.63.12l.21.12.84-.12Z"/>
    </g>
  </g>
</svg>